<svg width="512" height="396" viewBox="0 0 512 396" fill="none" xmlns="http://www.w3.org/2000/svg">
<g clip-path="url(#clip0)">
<path d="M503.32 342.901C501.168 325.597 490.444 308.548 473.942 302.917C480.45 320.727 480.449 340.266 473.938 358.075C471.402 364.934 467.867 372.299 470.253 379.212C471.737 383.514 475.367 386.805 479.426 388.863C483.484 390.92 487.988 391.901 492.436 392.862L493.311 393.586C500.372 377.643 505.472 360.204 503.32 342.901Z" fill="#F0F0F0"/>
<path d="M473.778 303.244C483.388 314.012 489.361 327.534 490.849 341.89C491.224 344.975 491.11 348.1 490.512 351.149C489.834 354.101 488.377 356.817 486.294 359.016C484.393 361.105 482.206 363.021 480.846 365.536C480.169 366.833 479.773 368.26 479.686 369.721C479.599 371.182 479.821 372.645 480.339 374.014C481.54 377.459 483.907 380.266 486.317 382.932C488.993 385.891 491.82 388.923 492.958 392.846C493.096 393.321 493.825 393.08 493.687 392.605C491.708 385.779 485.082 381.902 481.922 375.754C480.448 372.885 479.829 369.554 481.211 366.526C482.42 363.878 484.673 361.9 486.616 359.801C488.68 357.686 490.194 355.098 491.027 352.263C491.779 349.254 492.012 346.139 491.718 343.051C491.168 336.089 489.526 329.258 486.853 322.806C483.843 315.426 479.593 308.615 474.287 302.668C473.958 302.3 473.452 302.879 473.778 303.244H473.778Z" fill="#F1F2F5"/>
<path d="M490.642 337.24C493.017 336.663 495.109 335.261 496.546 333.284C497.982 331.307 498.669 328.884 498.484 326.448C498.445 325.955 497.677 325.992 497.716 326.486C497.893 328.755 497.253 331.012 495.911 332.85C494.57 334.688 492.616 335.986 490.401 336.51C489.92 336.624 490.164 337.353 490.642 337.24Z" fill="#F1F2F5"/>
<path d="M487.398 358.084C483.109 355.523 479.942 351.439 478.53 346.648C478.391 346.173 477.661 346.414 477.801 346.888C479.279 351.872 482.583 356.115 487.052 358.77C487.478 359.023 487.822 358.335 487.398 358.084Z" fill="#F1F2F5"/>
<path d="M483.13 316.154C482.258 316.568 481.296 316.76 480.332 316.711C479.367 316.662 478.43 316.374 477.604 315.873C477.181 315.615 476.838 316.303 477.258 316.56C478.173 317.109 479.209 317.425 480.274 317.482C481.34 317.538 482.403 317.333 483.371 316.884C483.466 316.849 483.544 316.779 483.589 316.689C483.635 316.599 483.644 316.495 483.616 316.398C483.583 316.302 483.514 316.222 483.423 316.176C483.332 316.13 483.227 316.122 483.13 316.154Z" fill="#F1F2F5"/>
<path d="M423.64 333.823C423.899 333.992 424.159 334.161 424.418 334.336C427.894 336.621 431.178 339.185 434.238 342.002C434.478 342.216 434.718 342.437 434.952 342.657C442.252 349.523 448.214 357.685 452.535 366.727C454.252 370.327 455.691 374.052 456.842 377.87C458.431 383.144 459.735 388.988 462.881 393.301C463.204 393.754 463.555 394.188 463.932 394.598H492.36C492.425 394.566 492.49 394.54 492.555 394.507L493.69 394.559C493.644 394.358 493.593 394.15 493.547 393.949C493.521 393.833 493.489 393.716 493.463 393.599C493.443 393.521 493.424 393.443 493.411 393.372C493.404 393.346 493.398 393.32 493.391 393.301C493.378 393.229 493.359 393.165 493.346 393.1C493.06 391.939 492.766 390.778 492.464 389.617C492.464 389.61 492.464 389.61 492.457 389.604C490.129 380.763 487.042 372.039 482.728 364.061C482.598 363.822 482.469 363.575 482.326 363.335C480.362 359.75 478.108 356.331 475.587 353.113C474.201 351.355 472.727 349.669 471.17 348.06C467.14 343.912 462.482 340.423 457.368 337.721C447.171 332.338 435.367 330.275 424.47 333.564C424.191 333.648 423.919 333.733 423.64 333.823Z" fill="#F0F0F0"/>
<path d="M423.704 334.184C437.86 336.996 450.771 344.196 460.602 354.763C462.759 357.001 464.549 359.564 465.908 362.359C467.143 365.124 467.616 368.17 467.276 371.179C467.016 373.992 466.423 376.839 466.851 379.665C467.092 381.109 467.635 382.486 468.445 383.705C469.254 384.924 470.313 385.958 471.55 386.74C474.583 388.767 478.164 389.584 481.693 390.261C485.612 391.012 489.694 391.731 492.964 394.179C493.361 394.475 493.798 393.843 493.402 393.547C487.712 389.289 480.087 390.182 473.862 387.176C470.958 385.773 468.458 383.486 467.739 380.236C467.11 377.394 467.718 374.458 468.006 371.612C468.38 368.681 468.031 365.703 466.989 362.938C465.777 360.083 464.089 357.455 461.995 355.167C457.364 349.94 451.94 345.473 445.921 341.931C439.075 337.851 431.58 334.971 423.763 333.418C423.279 333.322 423.223 334.089 423.704 334.184H423.704Z" fill="#F1F2F5"/>
<path d="M457.636 351.175C459.185 349.284 460.012 346.905 459.969 344.462C459.926 342.019 459.015 339.67 457.4 337.836C457.072 337.466 456.482 337.958 456.81 338.329C458.317 340.034 459.165 342.222 459.201 344.497C459.236 346.772 458.458 348.985 457.005 350.737C456.689 351.118 457.323 351.553 457.636 351.175Z" fill="#F1F2F5"/>
<path d="M467.596 369.771C462.629 370.308 457.643 368.954 453.63 365.978C453.233 365.683 452.796 366.315 453.193 366.61C457.374 369.699 462.566 371.097 467.733 370.527C468.225 370.472 468.086 369.716 467.596 369.771Z" fill="#F1F2F5"/>
<path d="M438.944 338.861C438.497 339.717 437.844 340.449 437.044 340.991C436.245 341.533 435.323 341.867 434.362 341.965C433.869 342.013 434.01 342.769 434.499 342.721C435.561 342.608 436.578 342.237 437.463 341.641C438.348 341.044 439.073 340.24 439.575 339.299C439.63 339.214 439.651 339.112 439.632 339.012C439.614 338.913 439.559 338.824 439.478 338.764C439.394 338.707 439.291 338.685 439.191 338.703C439.091 338.721 439.002 338.778 438.944 338.861Z" fill="#F1F2F5"/>
<path d="M284.547 21.1456C283.862 22.0003 283.372 22.9949 283.113 24.0593C282.854 25.1237 282.831 26.232 283.046 27.3062C283.261 28.3804 283.71 29.3943 284.359 30.2765C285.009 31.1587 285.844 31.8878 286.806 32.4124L282.423 58.6799L295.072 53.0664L297.295 28.9829C298.069 27.3087 298.202 25.4087 297.669 23.6429C297.136 21.8771 295.973 20.3683 294.402 19.4022C292.831 18.4362 290.96 18.08 289.143 18.4014C287.327 18.7227 285.692 19.6991 284.547 21.1456Z" fill="#9E616A"/>
<path d="M398.341 384.549L387.998 384.548L383.078 344.655L398.343 344.656L398.341 384.549Z" fill="#9E616A"/>
<path d="M400.979 394.575L367.629 394.574V394.152C367.63 390.709 368.997 387.408 371.432 384.973C373.866 382.539 377.167 381.172 380.61 381.172H380.611L400.979 381.172L400.979 394.575Z" fill="#0C4271"/>
<path d="M328.94 384.549L318.597 384.548L313.677 344.655L328.942 344.656L328.94 384.549Z" fill="#9E616A"/>
<path d="M331.578 394.575L298.228 394.574V394.152C298.229 390.709 299.596 387.408 302.03 384.973C304.465 382.539 307.766 381.172 311.209 381.172H311.21L331.578 381.172L331.578 394.575Z" fill="#0C4271"/>
<path d="M324.629 198.394L320.763 203.478C320.763 203.478 320.413 205.853 314.549 225.197L311.332 370.599H330.79L356.8 254.261L383.794 372.933L400.661 373.929L399.868 239.045C399.868 239.045 401.999 211.295 394.447 206.142C386.895 200.988 324.629 198.394 324.629 198.394Z" fill="#0C4271"/>
<path d="M350.723 76.2072C362 76.2072 371.142 67.0656 371.142 55.7887C371.142 44.5119 362 35.3702 350.723 35.3702C339.446 35.3702 330.305 44.5119 330.305 55.7887C330.305 67.0656 339.446 76.2072 350.723 76.2072Z" fill="#9E616A"/>
<path d="M371.265 58.9855L370.928 58.3112C370.406 57.2683 366.089 48.5982 365.547 46.3689L360.113 47.008L345.963 47.0103L347.93 44.0611L342.732 44.7392C340.831 44.9701 339.014 45.6548 337.434 46.7357C336.465 47.3796 335.646 48.2245 335.032 49.2129C333.175 52.3926 330.338 57.5935 330.31 57.6458L330.038 58.1433L327.681 54.1779C327.65 54.024 324.728 38.7858 334.506 33.6178C335.01 32.5936 339.307 24.5373 349.463 25.0811C350.58 23.8084 352.152 23.0266 353.841 22.905C356.16 22.784 358.568 24.0024 360.986 26.5414C364.197 29.9136 368.596 34.5318 371.256 39.6596L371.99 40.7066C373.033 42.205 373.549 44.0069 373.458 45.8302C374.023 48.7401 373.823 51.7468 372.876 54.5557L371.265 58.9855Z" fill="#0C4271"/>
<path d="M366.281 80.0492L377.579 86.2939L399.773 92.5082L393.149 150.588L394.354 207.799C394.354 207.799 356.786 233.534 320.763 203.478V131.467L322.894 92.5082C322.894 92.5082 331.514 90.0593 335.855 94.2837L344.087 83.5901L366.281 80.0492Z" fill="#E4E4E4"/>
<path d="M327.872 97.8595L322.894 92.5085L295.461 89.401L298.036 47.268L283.079 36.5984L272.091 95.9137L322.85 131.467L327.872 97.8595Z" fill="#E4E4E4"/>
<path d="M383.479 226.704C383.274 225.628 383.308 224.52 383.578 223.458C383.848 222.396 384.348 221.407 385.042 220.559C385.735 219.711 386.607 219.026 387.594 218.551C388.581 218.076 389.661 217.824 390.756 217.812L399.202 192.556L407.742 203.445L398.413 225.759C398.312 227.601 397.538 229.341 396.239 230.651C394.941 231.961 393.207 232.748 391.366 232.865C389.525 232.981 387.705 232.419 386.252 231.283C384.798 230.148 383.811 228.519 383.479 226.704Z" fill="#9E616A"/>
<path d="M391.435 99.1567L399.773 92.5082C399.773 92.5082 408.299 97.2109 410.894 105.643C413.488 114.075 418.028 162.072 418.028 162.072L405.705 223.69L391.923 214.132L398.57 165.315L386.895 129.641L391.435 99.1567Z" fill="#E4E4E4"/>
<path d="M286.909 0H76.6284V51.0988H286.909V0Z" fill="#E6E6E6"/>
<path d="M82.1457 45.5813H281.391V5.51758H82.1457V45.5813Z" fill="#F1F2F5"/>
<path d="M120.096 40.8127C128.525 40.8127 135.359 33.9791 135.359 25.5494C135.359 17.1197 128.525 10.2861 120.096 10.2861C111.666 10.2861 104.832 17.1197 104.832 25.5494C104.832 33.9791 111.666 40.8127 120.096 40.8127Z" fill="#0A81AB"/>
<path d="M258.705 19.5768H156.595V22.8949H258.705V19.5768Z" fill="#0A81AB"/>
<path d="M258.705 28.2039H156.595V31.522H258.705V28.2039Z" fill="#0A81AB"/>
<path d="M0 77.6656L177.922 90.6434V137.359L0 134.055V77.6656Z" fill="#E6E6E6"/>
<path d="M5.60474 128.104L174.038 132.223V95.4266L5.60474 84.1301V128.104Z" fill="#F1F2F5"/>
<path d="M42.5725 91.6558C44.5171 91.7812 46.4108 92.3295 48.1216 93.2624C49.8375 94.2004 51.3597 95.4557 52.6073 96.9615C53.9038 98.5194 54.9193 100.291 55.6084 102.197C56.3354 104.202 56.7064 106.319 56.7046 108.453C56.7123 110.553 56.3409 112.638 55.6084 114.607C54.929 116.436 53.9108 118.12 52.6073 119.571C51.3556 120.966 49.8282 122.086 48.1216 122.86C46.3792 123.643 44.4816 124.018 42.5725 123.959C40.6187 123.897 38.7026 123.404 36.9609 122.517C35.1966 121.615 33.6242 120.379 32.3311 118.877C30.9742 117.308 29.909 115.508 29.1858 113.564C28.4183 111.51 28.026 109.335 28.0277 107.143C28.0192 104.983 28.4119 102.84 29.1858 100.824C29.8997 98.9618 30.9682 97.2558 32.3318 95.8004C33.6307 94.4137 35.2086 93.3178 36.9617 92.585C38.7365 91.851 40.6558 91.5331 42.5725 91.6558Z" fill="#E6E6E6"/>
<path d="M75.7106 103.215L157.687 107.487V110.592L75.7106 106.609V103.215Z" fill="#E6E6E6"/>
<path d="M75.7106 112.04L157.687 115.559V118.664L75.7106 115.434V112.04Z" fill="#E6E6E6"/>
<path d="M0 172.565L177.922 169.262V215.978L0 228.956V172.565Z" fill="#E6E6E6"/>
<path d="M5.60474 222.49L174.038 211.194V174.401L5.60474 178.52V222.49Z" fill="#F1F2F5"/>
<path d="M28.0399 198.734C28.1262 196.543 28.6061 194.386 29.4565 192.365C30.2551 190.46 31.3903 188.716 32.8078 187.214C34.1569 185.779 35.7745 184.623 37.5688 183.811C39.3435 183.012 41.2735 182.618 43.2194 182.657C45.129 182.696 47.0047 183.168 48.7051 184.038C50.3771 184.901 51.854 186.098 53.0443 187.555C54.2858 189.072 55.2334 190.808 55.8387 192.673C56.4905 194.677 56.7781 196.782 56.6878 198.887C56.606 201.018 56.1521 203.119 55.3466 205.093C54.5849 206.965 53.5004 208.689 52.1426 210.186C50.8385 211.63 49.2691 212.81 47.5196 213.662C45.7726 214.51 43.8603 214.962 41.9187 214.987C39.996 215.011 38.0937 214.593 36.3574 213.767C34.6368 212.941 33.1086 211.764 31.8717 210.31C30.571 208.783 29.5753 207.021 28.9385 205.118C28.249 203.064 27.9444 200.899 28.0399 198.734Z" fill="#E6E6E6"/>
<path d="M75.7106 191.187L157.687 187.957V191.062L75.7106 194.581V191.187Z" fill="#E6E6E6"/>
<path d="M75.7106 200.012L157.687 196.03V199.134L75.7106 203.406V200.012Z" fill="#E6E6E6"/>
<path d="M511.351 395.247H264.231C264.059 395.247 263.894 395.178 263.773 395.057C263.651 394.935 263.583 394.77 263.583 394.598C263.583 394.426 263.651 394.261 263.773 394.139C263.894 394.018 264.059 393.949 264.231 393.949H511.351C511.523 393.949 511.688 394.018 511.81 394.139C511.932 394.261 512 394.426 512 394.598C512 394.77 511.932 394.935 511.81 395.057C511.688 395.178 511.523 395.247 511.351 395.247Z" fill="#CACACA"/>
</g>
<defs>
<clipPath id="clip0">
<rect width="512" height="395.247" fill="white"/>
</clipPath>
</defs>
</svg>
