<svg width="208" height="31" viewBox="0 0 208 31" fill="none" xmlns="http://www.w3.org/2000/svg">
<path d="M12.0986 7.344C13.8986 7.344 15.5306 7.764 16.9946 8.604C18.4826 9.42 19.6466 10.584 20.4866 12.096C21.3266 13.584 21.7466 15.324 21.7466 17.316C21.7466 19.308 21.3266 21.06 20.4866 22.572C19.6466 24.06 18.4826 25.224 16.9946 26.064C15.5306 26.88 13.8986 27.288 12.0986 27.288C9.43459 27.288 7.40659 26.448 6.01459 24.768V27H0.650594V0.287998H6.26659V9.684C7.68259 8.124 9.62659 7.344 12.0986 7.344ZM11.1266 22.68C12.5666 22.68 13.7426 22.2 14.6546 21.24C15.5906 20.256 16.0586 18.948 16.0586 17.316C16.0586 15.684 15.5906 14.388 14.6546 13.428C13.7426 12.444 12.5666 11.952 11.1266 11.952C9.68659 11.952 8.49859 12.444 7.56259 13.428C6.65059 14.388 6.19459 15.684 6.19459 17.316C6.19459 18.948 6.65059 20.256 7.56259 21.24C8.49859 22.2 9.68659 22.68 11.1266 22.68ZM33.0017 7.344C36.0017 7.344 38.3057 8.064 39.9137 9.504C41.5217 10.92 42.3257 13.068 42.3257 15.948V27H37.0697V24.588C36.0137 26.388 34.0457 27.288 31.1657 27.288C29.6777 27.288 28.3817 27.036 27.2777 26.532C26.1977 26.028 25.3697 25.332 24.7937 24.444C24.2177 23.556 23.9297 22.548 23.9297 21.42C23.9297 19.62 24.6017 18.204 25.9457 17.172C27.3137 16.14 29.4137 15.624 32.2457 15.624H36.7097C36.7097 14.4 36.3377 13.464 35.5937 12.816C34.8497 12.144 33.7337 11.808 32.2457 11.808C31.2137 11.808 30.1937 11.976 29.1857 12.312C28.2017 12.624 27.3617 13.056 26.6657 13.608L24.6497 9.684C25.7057 8.94 26.9657 8.364 28.4297 7.956C29.9177 7.548 31.4417 7.344 33.0017 7.344ZM32.5697 23.508C33.5297 23.508 34.3817 23.292 35.1257 22.86C35.8697 22.404 36.3977 21.744 36.7097 20.88V18.9H32.8577C30.5537 18.9 29.4017 19.656 29.4017 21.168C29.4017 21.888 29.6777 22.464 30.2297 22.896C30.8057 23.304 31.5857 23.508 32.5697 23.508ZM56.9793 27.288C54.9153 27.288 53.0553 26.868 51.3993 26.028C49.7673 25.164 48.4833 23.976 47.5473 22.464C46.6353 20.952 46.1793 19.236 46.1793 17.316C46.1793 15.396 46.6353 13.68 47.5473 12.168C48.4833 10.656 49.7673 9.48 51.3993 8.64C53.0553 7.776 54.9153 7.344 56.9793 7.344C59.0193 7.344 60.7953 7.776 62.3073 8.64C63.8433 9.48 64.9593 10.692 65.6553 12.276L61.2993 14.616C60.2913 12.84 58.8393 11.952 56.9433 11.952C55.4793 11.952 54.2673 12.432 53.3073 13.392C52.3473 14.352 51.8673 15.66 51.8673 17.316C51.8673 18.972 52.3473 20.28 53.3073 21.24C54.2673 22.2 55.4793 22.68 56.9433 22.68C58.8633 22.68 60.3153 21.792 61.2993 20.016L65.6553 22.392C64.9593 23.928 63.8433 25.128 62.3073 25.992C60.7953 26.856 59.0193 27.288 56.9793 27.288ZM77.0643 19.404L74.3643 22.068V27H68.7483V0.287998H74.3643V15.408L82.5723 7.632H89.2683L81.2043 15.84L89.9883 27H83.1843L77.0643 19.404Z" fill="black"/>
<path d="M101.19 27.432C99.1979 27.432 97.2659 27.168 95.3939 26.64C93.5459 26.088 92.0579 25.38 90.9299 24.516L92.9099 20.124C93.9899 20.916 95.2739 21.552 96.7619 22.032C98.2499 22.512 99.7379 22.752 101.226 22.752C102.882 22.752 104.106 22.512 104.898 22.032C105.69 21.528 106.086 20.868 106.086 20.052C106.086 19.452 105.846 18.96 105.366 18.576C104.91 18.168 104.31 17.844 103.566 17.604C102.846 17.364 101.862 17.1 100.614 16.812C98.6939 16.356 97.1219 15.9 95.8979 15.444C94.6739 14.988 93.6179 14.256 92.7299 13.248C91.8659 12.24 91.4339 10.896 91.4339 9.216C91.4339 7.752 91.8299 6.432 92.6219 5.256C93.4139 4.056 94.6019 3.108 96.1859 2.412C97.7939 1.716 99.7499 1.368 102.054 1.368C103.662 1.368 105.234 1.56 106.77 1.944C108.306 2.328 109.65 2.88 110.802 3.6L109.002 8.028C106.674 6.708 104.346 6.048 102.018 6.048C100.386 6.048 99.1739 6.312 98.3819 6.84C97.6139 7.368 97.2299 8.064 97.2299 8.928C97.2299 9.792 97.6739 10.44 98.5619 10.872C99.4739 11.28 100.854 11.688 102.702 12.096C104.622 12.552 106.194 13.008 107.418 13.464C108.642 13.92 109.686 14.64 110.55 15.624C111.438 16.608 111.882 17.94 111.882 19.62C111.882 21.06 111.474 22.38 110.658 23.58C109.866 24.756 108.666 25.692 107.058 26.388C105.45 27.084 103.494 27.432 101.19 27.432ZM115.471 0.287998H121.087V27H115.471V0.287998ZM134.111 7.344C137.111 7.344 139.415 8.064 141.023 9.504C142.631 10.92 143.435 13.068 143.435 15.948V27H138.179V24.588C137.123 26.388 135.155 27.288 132.275 27.288C130.787 27.288 129.491 27.036 128.387 26.532C127.307 26.028 126.479 25.332 125.903 24.444C125.327 23.556 125.039 22.548 125.039 21.42C125.039 19.62 125.711 18.204 127.055 17.172C128.423 16.14 130.523 15.624 133.355 15.624H137.819C137.819 14.4 137.447 13.464 136.703 12.816C135.959 12.144 134.843 11.808 133.355 11.808C132.323 11.808 131.303 11.976 130.295 12.312C129.311 12.624 128.471 13.056 127.775 13.608L125.759 9.684C126.815 8.94 128.075 8.364 129.539 7.956C131.027 7.548 132.551 7.344 134.111 7.344ZM133.679 23.508C134.639 23.508 135.491 23.292 136.235 22.86C136.979 22.404 137.507 21.744 137.819 20.88V18.9H133.967C131.663 18.9 130.511 19.656 130.511 21.168C130.511 21.888 130.787 22.464 131.339 22.896C131.915 23.304 132.695 23.508 133.679 23.508ZM155.034 27.288C153.426 27.288 151.854 27.096 150.318 26.712C148.782 26.304 147.558 25.8 146.646 25.2L148.518 21.168C149.382 21.72 150.426 22.176 151.65 22.536C152.874 22.872 154.074 23.04 155.25 23.04C157.626 23.04 158.814 22.452 158.814 21.276C158.814 20.724 158.49 20.328 157.842 20.088C157.194 19.848 156.198 19.644 154.854 19.476C153.27 19.236 151.962 18.96 150.93 18.648C149.898 18.336 148.998 17.784 148.23 16.992C147.486 16.2 147.114 15.072 147.114 13.608C147.114 12.384 147.462 11.304 148.158 10.368C148.878 9.408 149.91 8.664 151.254 8.136C152.622 7.608 154.23 7.344 156.078 7.344C157.446 7.344 158.802 7.5 160.146 7.812C161.514 8.1 162.642 8.508 163.53 9.036L161.658 13.032C159.954 12.072 158.094 11.592 156.078 11.592C154.878 11.592 153.978 11.76 153.378 12.096C152.778 12.432 152.478 12.864 152.478 13.392C152.478 13.992 152.802 14.412 153.45 14.652C154.098 14.892 155.13 15.12 156.546 15.336C158.13 15.6 159.426 15.888 160.434 16.2C161.442 16.488 162.318 17.028 163.062 17.82C163.806 18.612 164.178 19.716 164.178 21.132C164.178 22.332 163.818 23.4 163.098 24.336C162.378 25.272 161.322 26.004 159.93 26.532C158.562 27.036 156.93 27.288 155.034 27.288ZM179.415 7.344C181.815 7.344 183.747 8.064 185.211 9.504C186.699 10.944 187.443 13.08 187.443 15.912V27H181.827V16.776C181.827 15.24 181.491 14.1 180.819 13.356C180.147 12.588 179.175 12.204 177.903 12.204C176.487 12.204 175.359 12.648 174.519 13.536C173.679 14.4 173.259 15.696 173.259 17.424V27H167.643V0.287998H173.259V9.648C174.003 8.904 174.903 8.34 175.959 7.956C177.015 7.548 178.167 7.344 179.415 7.344ZM189.941 27H207.941V30.24H189.941V27Z" fill="#0A81AB"/>
</svg>
