<svg width="1018" height="709" viewBox="0 0 1018 709" fill="none" xmlns="http://www.w3.org/2000/svg">
<g clip-path="url(#clip0)">
<path opacity="0.1" d="M594.24 111.4C529.52 109.15 467.88 88.2601 409.01 65.4001C350.14 42.5401 291.85 17.2101 228.68 5.15006C188.05 -2.63994 141.59 -3.73994 108.85 18.0401C77.35 39.0401 67.17 75.1901 61.69 108.76C57.58 134.03 55.15 160.61 66.44 184.26C74.27 200.68 88.18 214.48 97.8 230.21C131.26 284.93 107.61 352.41 71.34 405.84C54.34 430.9 34.6 454.84 21.47 481.5C8.33999 508.16 2.26999 538.75 13.75 565.97C25.14 592.97 52.27 613.21 81.65 627.46C141.34 656.4 211.65 664.69 280.27 669.38C432.09 679.77 584.73 675.27 736.95 670.77C793.29 669.1 849.87 667.41 905.29 658.7C936.07 653.86 967.85 646.18 990.19 627.7C1018.55 604.17 1025.58 564.32 1006.58 534.82C974.7 485.33 886.58 473.03 864.27 419.92C852 390.69 864.6 358.12 882.42 331.01C920.66 272.84 984.75 221.82 988.13 155.33C990.45 109.67 959.64 63.9401 912 42.3301C862.06 19.6801 792.82 22.5301 756 60.0201C718.04 98.5301 651.38 113.38 594.24 111.4Z" fill="#0A81AB"/>
<g opacity="0.1">
<path opacity="0.1" d="M86.35 328.36C86.35 328.36 11.61 296.92 1.78002 353.61C1.78002 353.61 -3.32998 362.45 3.78002 369.75C3.78002 369.75 5.31002 365.83 12.53 369.88C15.1088 371.306 17.848 372.421 20.69 373.2C24.5281 374.259 28.6064 374.041 32.31 372.58V372.58C32.31 372.58 56.9 371.25 77.58 339.08C77.58 339.08 86.45 333.6 86.89 331.54L72.07 332.54C72.07 332.54 73.21 343.39 67.07 349.9C67.07 349.9 72.51 333.06 69.9 332.59C69.37 332.49 62.07 333.45 62.07 333.45C62.07 333.45 63.96 352.32 54.07 362.08C54.07 362.08 63.25 342.89 59.26 333.79L48.32 335.9C48.32 335.9 51.32 355.75 40.5 367.29C40.5 367.29 49.4 346.89 45.96 336.53L35.49 340.05C35.49 340.05 38.01 359.46 28.96 369.05C28.96 369.05 36.86 344.44 33.14 341.05C33.14 341.05 23.72 344.87 21.71 347.05C21.71 347.05 23.2 361.05 17.45 366.1C17.45 366.1 20.98 349.1 19.23 348.4C19.23 348.4 8.29002 356.64 4.95002 363.75C4.95002 363.75 9.11003 352.89 17.86 346.75C17.86 346.75 10.51 345.51 4.86003 348.58C4.86003 348.58 8.64003 341.37 20.51 344.79C20.51 344.79 29.3 338.7 31.06 338.79C31.06 338.79 19.83 333.79 11.72 334.41C11.72 334.41 20.42 329.41 33.8 337.76L44.25 333.99C44.25 333.99 29.75 326.56 22.49 326.59C22.49 326.59 32.15 322.85 46.96 333.25L57.66 331.07C57.66 331.07 45.66 323.72 37.57 322.01C37.57 322.01 47.27 320.47 60.75 330.56L68.06 329.95C68.06 329.95 59.21 324.73 56.53 323.46C53.85 322.19 53.97 321.37 53.97 321.37C60.3453 322.479 66.2867 325.339 71.13 329.63C71.13 329.63 86.29 329.29 86.35 328.36Z" fill="#0A81AB"/>
</g>
<g opacity="0.1">
<path opacity="0.1" d="M83.61 272C83.61 272 57.1 210.73 18.98 238.83C18.98 238.83 10.92 241.17 10.98 249.53C10.98 249.53 14.12 248.07 16.11 254.6C16.8397 256.916 17.847 259.136 19.11 261.21C20.7793 264.029 23.3256 266.224 26.36 267.46C26.36 267.46 41.73 280.68 72.36 273.35C72.36 273.35 80.76 275.14 82.19 274.18L72.83 266.31C72.83 266.31 67.32 273.41 59.94 273.75C59.94 273.75 72.77 266.85 71.49 265.08C71.23 264.72 66.34 261.14 66.34 261.14C66.34 261.14 56.72 273.42 45.34 273.61C45.34 273.61 61.73 267.43 64.54 259.76L56.84 254.76C56.84 254.76 47.3 268.25 34.31 268.95C34.31 268.95 51.22 261.9 55.08 253.78L46.85 249.91C46.85 249.91 37.29 262.91 26.48 263.4C26.48 263.4 45.2 253.28 44.91 249.15C44.91 249.15 37.14 246.05 34.67 246.23C34.67 246.23 27.6 255.38 21.29 255.12C21.29 255.12 33.08 247.03 32.44 245.62C32.44 245.62 21.24 244.28 15.21 246.62C15.21 246.62 23.87 242.54 32.56 243.88C32.56 243.88 28.9 238.95 23.81 237.58C23.81 237.58 30.17 235.45 35.27 244.23C35.27 244.23 43.95 245.63 44.97 246.67C44.97 246.67 41.16 237.28 35.97 233.05C35.97 233.05 43.97 235.05 47.17 247.62L55.53 251.33C55.53 251.33 51.15 238.65 46.81 234.54C46.81 234.54 54.68 237.82 57.56 252.44L65.16 257.23C65.16 257.23 62.22 246.03 58.39 240.4C58.39 240.4 65.03 245.02 67.28 258.69L71.98 262.49C71.98 262.49 69.69 254.35 68.82 252.07C67.95 249.79 68.49 249.37 68.49 249.37C71.6489 253.658 73.55 258.741 73.98 264.05C73.98 264.05 83.02 272.51 83.61 272Z" fill="#0A81AB"/>
</g>
<path d="M933.27 667.15C932.27 663.53 931.27 659.86 929.27 656.71C927.415 654.037 925.208 651.625 922.71 649.54C915.46 642.95 906.55 636.26 896.94 637.93C893.96 638.581 891.08 639.631 888.38 641.05C886.98 641.7 885.57 642.35 884.13 642.9C880.073 644.595 875.589 644.986 871.3 644.02C869.1 643.43 867.05 642.37 864.88 641.71C863.846 641.401 862.789 641.174 861.72 641.03C863.815 640.081 865.852 639.01 867.82 637.82C878.61 631.15 887.22 619.15 886.01 606.45C885.61 602.15 884.13 598.04 882.67 593.99C881.39 590.45 880.107 586.907 878.82 583.36C877.16 578.75 875.45 574.06 872.41 570.23C869.03 565.97 864.23 563.08 859.27 560.92C848.61 556.29 836.96 554.66 825.46 553.08L824.66 552.97V428.73C824.667 427.675 824.465 426.629 824.065 425.653C823.666 424.677 823.078 423.789 822.335 423.041C821.591 422.293 820.707 421.699 819.733 421.294C818.759 420.888 817.715 420.68 816.66 420.68H801.53C800.863 416.6 800.197 412.523 799.53 408.45C797.62 396.84 795.65 385 790.3 374.54C786.8 367.69 781.22 361.17 773.71 359.82C772.232 359.682 770.779 359.346 769.39 358.82C767.19 357.74 765.99 355.34 764.29 353.56C759.93 348.99 752.84 348.92 746.99 346.56C741.83 344.51 737.61 340.64 732.91 337.67C728.21 334.7 722.36 332.58 717.15 334.52C717.15 334.9 717.08 335.27 717.04 335.65L713.7 334.15C710.1 332.49 706.42 330.77 703.53 328.03C699.81 324.52 697.83 319.89 696.29 314.95C696.13 314.43 695.98 313.95 695.83 313.4C702.22 306.87 706.547 298.603 708.27 289.63C708.54 290.5 708.82 291.38 709.09 292.26C709.336 293.154 709.671 294.022 710.09 294.85C710.229 295.123 710.386 295.387 710.56 295.64C710.89 296.131 711.303 296.561 711.78 296.91C712.254 297.255 712.808 297.472 713.39 297.54C713.669 297.579 713.951 297.579 714.23 297.54C714.985 297.38 715.688 297.034 716.275 296.533C716.862 296.031 717.314 295.391 717.59 294.67C717.749 294.277 717.867 293.868 717.94 293.45C717.979 293.198 718.002 292.944 718.01 292.69C718.01 292.61 718.01 292.53 718.01 292.45C718.01 292.37 718.01 292.1 718.01 291.93C718.01 291.76 718.01 291.74 718.01 291.65C718.01 291.56 718.01 291.31 718.01 291.15V290.89C718.01 290.69 717.95 290.49 717.91 290.3C717.87 290.11 717.91 290.19 717.91 290.14C717.86 289.88 717.8 289.63 717.75 289.37C717.745 289.313 717.745 289.256 717.75 289.2L717.6 288.57L717.51 288.19V288.09C717.41 287.7 717.32 287.3 717.23 286.9C716.503 283.426 716.318 279.861 716.68 276.33C717.282 271.151 718.238 266.019 719.54 260.97L719.75 260.06L719.99 259C720.15 258.28 720.3 257.56 720.45 256.84C720.58 256.23 720.7 255.61 720.81 254.99C720.92 254.37 721 253.9 721.08 253.35C721.08 253.28 721.08 253.22 721.08 253.15C721.691 249.423 721.856 245.636 721.57 241.87V241.87C721.1 236.64 719.48 231.69 715.92 227.74C713.41 224.95 710.11 222.89 707.78 219.96C705.59 217.21 704.36 213.83 702.1 211.14C695.85 203.68 679.82 197.93 669.98 196.93C658.71 195.79 640.5 198.67 631.42 205.33C628.06 207.79 625.76 211.33 623.42 214.7C619.12 220.96 614.23 227.2 607.34 230.7C604.73 232.02 601.75 233.02 600.02 235.32C598.975 236.879 598.291 238.652 598.02 240.51C596.691 247.027 596.001 253.659 595.96 260.31C595.811 263.219 596.183 266.132 597.06 268.91C597.2 269.29 597.37 269.68 597.55 270.05C597.71 270.38 597.89 270.71 598.08 271.05L598.2 271.26C599.407 272.992 600.48 274.814 601.41 276.71C601.63 277.244 601.791 277.801 601.89 278.37C602.061 279.838 601.967 281.325 601.61 282.76C601.61 282.98 601.53 283.19 601.48 283.4L601.39 283.86C601.39 284 601.39 284.15 601.31 284.29C601.23 284.723 601.16 285.153 601.1 285.58C601.1 285.88 601.04 286.19 601.03 286.5C600.959 287.738 601.196 288.975 601.72 290.1C601.852 290.368 602.009 290.623 602.19 290.86C602.548 291.339 603.01 291.732 603.54 292.01C604.731 292.458 605.975 292.753 607.24 292.89C610.98 293.73 613.32 296.59 614.84 300.1C615.177 300.888 615.474 301.692 615.73 302.51C616.354 304.562 616.822 306.658 617.13 308.78C618.83 308.69 619.82 307.19 620.42 305.55C620.608 305.009 620.765 304.458 620.89 303.9C621.12 302.85 621.35 301.8 621.59 300.75C625.537 309.125 631.896 316.131 639.85 320.87C640.13 321.69 640.4 322.52 640.65 323.36C641.96 327.89 642.59 332.64 640.32 336.6C638.7 339.41 635.97 341.15 632.93 342.35C632.493 341.762 631.929 341.28 631.28 340.94C628.64 339.62 625.48 341.23 623.28 343.2C619.28 346.82 616.02 352.01 610.75 353.2C608.85 353.64 606.75 353.55 605.16 354.71C604.113 355.695 603.238 356.847 602.57 358.12C601.427 359.76 599.89 361.086 598.101 361.977C596.312 362.868 594.327 363.296 592.33 363.22C590.5 363.13 588.33 362.71 587.08 364.05C586.15 365.05 586.08 366.64 585.08 367.59C583.73 368.91 581.54 368.26 579.66 368.18C578.302 368.183 576.958 368.464 575.712 369.004C574.465 369.543 573.342 370.332 572.41 371.32C572.292 367.285 570.747 363.423 568.05 360.42C565.35 357.64 561.6 356.21 558.4 354.03C550.4 348.59 546.4 339.03 542.23 330.27C538.06 321.51 532.56 312.27 523.46 309.08C521.37 308.34 518.46 308.28 517.52 310.31C517.2 311.157 517.148 312.082 517.37 312.96C518.25 317.62 521.57 321.36 524.44 325.11C529.27 331.43 533.32 339.16 532.15 347.06C530.78 356.41 522.45 363.67 521.45 373.06C521.01 377.2 522.06 381.36 522.05 385.52C522.05 388.12 521.64 390.75 522.2 393.28C522.795 395.202 523.499 397.088 524.31 398.93C525.211 401.952 525.676 405.087 525.69 408.24C526.397 421.493 527.1 434.75 527.8 448.01C528.33 457.9 526.17 467.66 523.99 477.39C521.287 483.158 519.189 489.19 517.73 495.39C515.27 506.22 515.2 517.76 518.73 528.3C520.62 534.03 523.52 539.4 525.07 545.23C525.07 545.36 525.13 545.48 525.16 545.6C525.31 546.84 525.48 548.08 525.71 549.31C525.994 550.731 526.365 552.134 526.82 553.51C527.274 555.88 528.012 558.187 529.02 560.38C530.422 563.165 532.482 565.568 535.02 567.38C533.58 570.2 531.25 572.47 529.7 575.23C527 580.01 526.89 585.88 527.87 591.3C529.76 601.76 535.41 611.11 542.87 618.71C542.537 618.691 542.203 618.691 541.87 618.71C539.43 618.98 537.087 619.819 535.03 621.16C519.24 630.39 510.21 650.16 513.51 668.26C514.16 671.8 515.29 675.38 517.65 678.07C519.615 680.212 522.14 681.76 524.94 682.54C526.689 683.066 528.489 683.401 530.31 683.54C542.62 684.54 554.54 678.83 566.88 678.35C570.971 678.285 575.062 678.476 579.13 678.92C585.07 679.413 591.023 679.727 596.99 679.86C606.68 680.09 612.14 677.51 618.33 670.26C619.851 668.461 621.12 666.462 622.1 664.32C627.36 664.02 633.17 663.56 637.38 663.21L637.44 663.8C637.67 665.8 638.02 668.1 639.62 669.37C640.524 669.982 641.546 670.398 642.62 670.59C652.73 673.08 662.96 675.59 673.36 675.59C678.244 675.488 683.118 675.111 687.96 674.46L706.26 672.35C711.585 673.035 716.842 674.18 721.97 675.77C727.25 677.57 732.19 680.24 737.35 682.34C749.35 687.21 762.27 688.95 775.06 690.65C777.24 690.94 779.74 691.14 781.36 689.65C783.44 687.65 782.74 684.3 782.16 681.5C781.92 680.36 781.74 679.2 781.59 678.04C790.223 680.309 798.668 683.241 806.85 686.81L808.29 687.44C808.7 689.62 810.72 691.37 812.65 693.72C813.284 694.709 814.025 695.624 814.86 696.45C815.812 697.077 816.898 697.471 818.03 697.6C831.545 700.116 845.344 700.739 859.03 699.45C861.83 699.069 864.661 698.972 867.48 699.16C869.55 699.44 871.591 699.902 873.58 700.54L885.16 703.85C893.69 706.3 902.44 708.77 911.29 708.22C913.087 708.102 914.873 707.845 916.63 707.45C923.63 705.83 930.16 701.91 933.52 695.61C938.03 687.04 935.84 676.51 933.27 667.15ZM593.61 510.74C593.253 515.076 592.122 519.313 590.27 523.25C589.03 525.76 587.43 528.07 586.27 530.59C585.17 532.87 584.35 537.18 583.86 541.91C583.26 541.81 582.65 541.72 582.05 541.65C582.94 538.53 583.61 535.33 584.5 532.2C586.61 524.76 590.08 517.73 593.61 510.74Z" fill="url(#paint0_linear)"/>
<path d="M609.02 664.54C606.91 659.74 604.91 654.22 607.02 649.42C608.397 646.593 610.763 644.37 613.67 643.17C616.546 641.997 619.578 641.249 622.67 640.95C632.374 639.677 642.194 639.543 651.93 640.55C652.64 646.17 651.14 651.87 649.85 657.3C648.68 662.3 648.01 663.04 642.85 663.3C639.51 663.48 609.81 666.31 609.02 664.54Z" fill="#FBBEBE"/>
<path d="M698.07 632.16C777.047 632.16 841.07 614.251 841.07 592.16C841.07 570.069 777.047 552.16 698.07 552.16C619.093 552.16 555.07 570.069 555.07 592.16C555.07 614.251 619.093 632.16 698.07 632.16Z" fill="#464353"/>
<path opacity="0.1" d="M698.07 632.16C777.047 632.16 841.07 614.251 841.07 592.16C841.07 570.069 777.047 552.16 698.07 552.16C619.093 552.16 555.07 570.069 555.07 592.16C555.07 614.251 619.093 632.16 698.07 632.16Z" fill="black"/>
<path d="M723.71 381C718.808 390.472 710.667 397.867 700.77 401.84C694.942 403.964 688.81 405.132 682.61 405.3C675.82 405.61 668.89 405.17 662.51 402.85C653.95 399.75 646.84 393.41 641.51 386.02C636.18 378.63 632.51 370.19 629.32 361.68C627.64 357.25 626.04 352.53 626.83 347.85C631.98 346.68 637.62 344.96 640.28 340.39C642.55 336.47 641.92 331.77 640.61 327.29C640.24 326.02 639.81 324.76 639.38 323.55C638.38 320.65 634.93 315.14 637.33 312.66C638.86 311.09 645.27 310.29 647.48 309.27C654.29 306.13 660.57 301.59 668.05 300.1C674.52 298.81 681.2 300.02 687.66 301.36C688.517 301.485 689.34 301.781 690.08 302.23C690.924 302.941 691.548 303.878 691.88 304.93C693.72 309.41 694.8 314.36 696.28 319.03C697.82 323.92 699.8 328.51 703.51 331.98C706.4 334.69 710.08 336.39 713.68 338.04L722.54 342.1C724.116 342.69 725.545 343.615 726.73 344.81C727.889 346.403 728.581 348.286 728.73 350.25C730.317 360.773 728.562 371.528 723.71 381V381Z" fill="#FBBEBE"/>
<path opacity="0.1" d="M696.24 319.03C689.187 326.366 679.901 331.157 669.834 332.652C659.768 334.146 649.49 332.261 640.61 327.29C640.24 326.02 639.81 324.76 639.38 323.55C638.38 320.65 634.93 315.14 637.33 312.66C638.86 311.09 645.27 310.29 647.48 309.27C654.29 306.13 660.57 301.59 668.05 300.1C674.52 298.81 681.2 300.02 687.66 301.36C688.517 301.485 689.34 301.781 690.08 302.23C690.924 302.941 691.548 303.878 691.88 304.93C693.68 309.41 694.76 314.36 696.24 319.03Z" fill="black"/>
<path d="M663.07 331.16C688.475 331.16 709.07 310.565 709.07 285.16C709.07 259.755 688.475 239.16 663.07 239.16C637.665 239.16 617.07 259.755 617.07 285.16C617.07 310.565 637.665 331.16 663.07 331.16Z" fill="#FBBEBE"/>
<path d="M803.22 434.45L799.44 411.55C797.53 400.06 795.56 388.35 790.22 378C786.71 371.22 781.14 364.76 773.63 363.42C772.151 363.288 770.697 362.952 769.31 362.42C767.11 361.36 765.91 358.98 764.22 357.22C759.86 352.7 752.76 352.63 746.92 350.33C741.76 348.33 737.54 344.48 732.84 341.54C728.14 338.6 722.29 336.54 717.09 338.42C716.25 347.37 715.36 356.52 711.56 364.67C709.087 369.976 705.459 374.662 700.942 378.385C696.424 382.108 691.132 384.775 685.452 386.189C679.771 387.604 673.847 387.731 668.111 386.562C662.375 385.392 656.973 382.956 652.3 379.43C643.39 372.72 637.68 362.37 635.02 351.54C634.37 348.9 633.63 345.87 631.2 344.66C628.57 343.34 625.41 344.94 623.2 346.88C619.15 350.47 615.93 355.61 610.67 356.82C608.77 357.26 606.67 357.17 605.09 358.32C604.04 359.289 603.161 360.428 602.49 361.69C601.339 363.316 599.801 364.631 598.015 365.514C596.229 366.397 594.251 366.822 592.26 366.75C590.43 366.66 588.26 366.24 587.01 367.57C586.08 368.57 586.01 370.13 585.01 371.06C583.66 372.37 581.47 371.73 579.59 371.66C576.03 371.51 572.72 373.79 570.68 376.66C568.64 379.53 567.68 383.08 566.68 386.52C577.61 410.86 587.61 435.23 598.54 459.57C599.052 460.487 599.324 461.519 599.33 462.57C599.111 463.66 598.646 464.686 597.97 465.57C592.61 474.18 592.78 485.01 593.37 495.13C593.96 505.25 594.68 515.94 590.16 525.01C588.93 527.5 587.33 529.78 586.16 532.27C583.42 537.91 582.43 555.95 584.03 562.01H810.03C805.72 550.16 807.36 526.38 808.26 513.8C808.89 505 807.26 496.21 806.56 487.41C805.09 469.44 806.19 452.39 803.22 434.45Z" fill="#6D94F8"/>
<path d="M814.79 555.01C818.12 553.74 821.79 554.2 825.36 554.68C836.85 556.25 848.51 557.86 859.16 562.45C864.16 564.59 868.92 567.45 872.3 571.66C875.3 575.45 877.05 580.09 878.71 584.66L882.55 595.15C884.01 599.15 885.49 603.23 885.9 607.48C887.1 620.07 878.49 631.94 867.66 638.48C856.83 645.02 844.08 647.35 831.66 649.79C819.24 652.23 806.77 654.93 794.4 657.79C788.63 659.287 782.777 660.439 776.87 661.24C763.63 662.74 749.79 660.53 737.21 664.91C732.21 666.66 727.3 669.26 722.11 670.47C718.668 671.225 715.185 671.786 711.68 672.15L687.87 674.87C683.028 675.518 678.154 675.892 673.27 675.99C662.87 675.99 652.64 673.53 642.54 671.07C641.466 670.882 640.444 670.469 639.54 669.86C637.94 668.6 637.59 666.37 637.36 664.35C636.34 655.41 635.447 646.46 634.68 637.5C634.44 634.59 634.26 631.44 635.85 628.99C637.85 625.99 641.75 625.05 645.31 624.47C660.406 622 675.698 620.939 690.99 621.3C696.8 615.49 706.38 615.46 713.99 612.3C716.79 611.014 719.499 609.541 722.1 607.89C735.707 599.951 750.912 595.144 766.61 593.82C769.685 593.726 772.741 593.29 775.72 592.52C781.61 590.69 786.98 585.71 793.03 586.93C793.78 584.86 794.3 582.09 796.03 580.67C796.89 579.94 797.95 579.45 798.74 578.67C800.41 576.98 800.56 574.32 800.31 571.96C800.06 569.6 799.5 567.18 800.11 564.88C800.364 564.009 800.737 563.178 801.22 562.41C804.23 557.15 808.76 554.51 814.79 555.01Z" fill="#464353"/>
<path opacity="0.05" d="M814.79 555.01C818.12 553.74 821.79 554.2 825.36 554.68C836.85 556.25 848.51 557.86 859.16 562.45C864.16 564.59 868.92 567.45 872.3 571.66C875.3 575.45 877.05 580.09 878.71 584.66L882.55 595.15C884.01 599.15 885.49 603.23 885.9 607.48C887.1 620.07 878.49 631.94 867.66 638.48C856.83 645.02 844.08 647.35 831.66 649.79C819.24 652.23 806.77 654.93 794.4 657.79C788.63 659.287 782.777 660.439 776.87 661.24C763.63 662.74 749.79 660.53 737.21 664.91C732.21 666.66 727.3 669.26 722.11 670.47C718.668 671.225 715.185 671.786 711.68 672.15L687.87 674.87C683.028 675.518 678.154 675.892 673.27 675.99C662.87 675.99 652.64 673.53 642.54 671.07C641.466 670.882 640.444 670.469 639.54 669.86C637.94 668.6 637.59 666.37 637.36 664.35C636.34 655.41 635.447 646.46 634.68 637.5C634.44 634.59 634.26 631.44 635.85 628.99C637.85 625.99 641.75 625.05 645.31 624.47C660.406 622 675.698 620.939 690.99 621.3C696.8 615.49 706.38 615.46 713.99 612.3C716.79 611.014 719.499 609.541 722.1 607.89C735.707 599.951 750.912 595.144 766.61 593.82C769.685 593.726 772.741 593.29 775.72 592.52C781.61 590.69 786.98 585.71 793.03 586.93C793.78 584.86 794.3 582.09 796.03 580.67C796.89 579.94 797.95 579.45 798.74 578.67C800.41 576.98 800.56 574.32 800.31 571.96C800.06 569.6 799.5 567.18 800.11 564.88C800.364 564.009 800.737 563.178 801.22 562.41C804.23 557.15 808.76 554.51 814.79 555.01Z" fill="black"/>
<path d="M618.22 670.72C612.03 677.89 606.58 680.45 596.89 680.22C590.93 680.08 584.977 679.77 579.03 679.29C574.965 678.851 570.878 678.66 566.79 678.72C554.45 679.2 542.54 684.85 530.23 683.86C528.41 683.717 526.61 683.382 524.86 682.86C522.083 682.087 519.574 680.561 517.61 678.45C515.25 675.78 514.12 672.24 513.47 668.74C510.18 650.8 519.2 631.26 534.99 622.13C537.05 620.8 539.392 619.968 541.83 619.7C544.22 619.69 546.584 620.209 548.75 621.22L548.9 621.28C555.315 623.92 561.141 627.808 566.04 632.72C566.783 633.571 567.67 634.285 568.66 634.83C569.648 635.203 570.694 635.4 571.75 635.41L584.89 636.24C587.116 636.307 589.329 636.612 591.49 637.15C593.872 637.982 596.192 638.984 598.43 640.15C605.5 643.31 613.34 644.15 620.98 645.37C621.716 645.411 622.419 645.692 622.98 646.17C623.285 646.549 623.497 646.994 623.6 647.47C624.667 651.49 624.734 655.711 623.796 659.763C622.859 663.815 620.944 667.577 618.22 670.72V670.72Z" fill="#0C4271"/>
<path opacity="0.1" d="M548.86 621.28C543.762 626.148 539.339 631.677 535.71 637.72C529.886 647.693 526.227 658.78 524.97 670.26C524.493 674.448 524.457 678.674 524.86 682.87C522.082 682.094 519.572 680.564 517.61 678.45C515.25 675.78 514.12 672.24 513.47 668.74C510.18 650.8 519.2 631.26 534.99 622.13C537.05 620.8 539.392 619.968 541.83 619.7C544.22 619.69 546.584 620.209 548.75 621.22L548.86 621.28Z" fill="black"/>
<path d="M803.35 646.15C810.7 645.95 818.95 645.58 824.35 650.53C829.5 655.21 830.18 662.93 830.52 669.88L830.91 677.95C831.03 680.41 831.13 682.95 830.14 685.23C828.38 689.23 823.55 691.16 819.14 690.93C814.73 690.7 810.68 688.77 806.65 687.03C795.709 682.317 784.317 678.728 772.65 676.32C773.03 670.74 773.663 665.187 774.55 659.66C775.16 655.83 775.26 649.42 777.82 646.24C780.53 642.88 784.06 644.7 787.74 645.32C792.904 646.108 798.132 646.386 803.35 646.15V646.15Z" fill="#FBBEBE"/>
<path d="M609.13 565.07C609.13 566.07 607.56 565.07 607.42 564C606.32 555.91 599.9 549.24 592.42 546C584.94 542.76 576.42 542.59 568.32 543.36C556.07 544.52 542.37 549.21 537.84 560.66C536.78 563.34 536.3 566.24 535 568.81C533.56 571.63 531.21 573.88 529.65 576.62C526.96 581.36 526.85 587.17 527.82 592.53C530.43 606.83 540.21 619.06 552.06 627.53C563.91 636 577.76 641.06 591.57 645.62C628.087 657.663 665.552 666.612 703.57 672.37C709.73 673.3 715.95 674.16 721.85 676.14C727.13 677.91 732.07 680.56 737.23 682.64C749.23 687.46 762.14 689.18 774.93 690.87C777.11 691.15 779.61 691.35 781.22 689.87C783.3 687.94 782.61 684.58 782.02 681.81C779.848 671.287 781.662 660.332 787.11 651.07C789.25 647.47 792.03 643.78 791.63 639.61C791.15 634.75 786.31 631.31 781.49 630.53C776.67 629.75 771.77 630.9 766.93 631.53C765.26 631.75 763.44 631.89 761.93 631.04C761.211 630.554 760.558 629.976 759.99 629.32C756.656 626.104 752.388 624.026 747.8 623.384C743.212 622.743 738.538 623.571 734.45 625.75C732.66 626.75 729.95 624.52 728.09 623.68L707.08 614.15C682.92 603.22 658.64 592.24 633.08 585.32C631.041 584.919 629.102 584.113 627.38 582.95C626.11 581.95 625.2 580.59 624.03 579.48C621.48 577.07 617.93 576.11 614.87 574.4C611.81 572.69 608.41 568.5 609.13 565.07Z" fill="#464353"/>
<path d="M933.32 695.76C929.96 701.99 923.44 705.87 916.44 707.47C914.683 707.866 912.898 708.121 911.1 708.23C902.25 708.78 893.51 706.33 884.98 703.91L873.4 700.63C871.409 700.003 869.368 699.548 867.3 699.27C864.484 699.082 861.656 699.179 858.86 699.56C845.174 700.833 831.377 700.214 817.86 697.72C816.729 697.598 815.643 697.211 814.69 696.59C813.855 695.772 813.114 694.863 812.48 693.88C809.33 690.09 805.94 687.88 809.67 682.88C811.82 679.98 815.81 678.53 817.48 675.2C819.15 671.87 818.08 667.14 817.09 663.7C815.74 658.95 811.3 656.9 809.71 652.54C808.52 649.25 810.52 645.43 813.53 643.64C816.54 641.85 820.26 641.71 823.73 642.17C827.2 642.63 830.6 643.61 834.09 643.88C844.35 644.7 854.84 639.41 864.69 642.39C866.86 643.05 868.91 644.1 871.11 644.68C875.399 645.639 879.88 645.252 883.94 643.57C885.38 643.03 886.79 642.38 888.19 641.74C890.89 640.334 893.765 639.295 896.74 638.65C906.35 637 915.26 643.65 922.51 650.14C924.999 652.206 927.201 654.593 929.06 657.24C931.06 660.36 932.12 663.99 933.06 667.57C935.71 676.84 937.9 687.26 933.32 695.76Z" fill="#0C4271"/>
<path opacity="0.1" d="M933.32 695.76C929.96 701.99 923.44 705.87 916.44 707.47C919.163 702.18 920.39 696.246 919.99 690.31C919.39 680.8 915.21 671.84 909.88 663.94C906.601 659.077 902.871 654.533 898.74 650.37C895.56 647.17 891.65 644.63 888.23 641.7C890.93 640.294 893.805 639.255 896.78 638.61C906.39 636.96 915.3 643.61 922.55 650.1C925.039 652.166 927.241 654.553 929.1 657.2C931.1 660.32 932.16 663.95 933.1 667.53C935.71 676.84 937.9 687.26 933.32 695.76Z" fill="black"/>
<path d="M631.29 210.5C627.93 212.93 625.63 216.42 623.29 219.77C618.98 225.96 614.1 232.14 607.21 235.59C604.6 236.9 601.62 237.89 599.89 240.17C598.863 241.712 598.197 243.465 597.94 245.3C596.62 251.751 595.93 258.315 595.88 264.9C595.88 268.18 596.02 271.56 597.47 274.54C598.84 277.34 601.31 279.71 601.82 282.76C602.21 285.14 601.33 287.51 601.02 289.9C600.71 292.29 601.25 295.12 603.46 296.26C604.651 296.708 605.894 297 607.16 297.13C613.81 298.61 616.04 306.41 617.05 312.86C619.31 312.73 620.33 310.14 620.8 308.03L627.73 277.22C628.48 273.88 629.73 270.01 633.06 268.84C635.29 268.07 637.73 268.79 640.06 268.99C649.21 269.74 656.95 262.67 665.9 260.72C668.765 260.145 671.694 259.954 674.61 260.15C681.67 260.5 689.88 263.4 691.38 269.99C691.63 271.06 691.78 272.34 692.78 272.87C693.78 273.4 694.78 272.95 695.88 272.87C700.36 272.42 703 277.46 704.29 281.58L708.99 296.58C709.69 298.85 710.87 301.52 713.33 301.81C715.6 302.09 717.53 299.94 717.87 297.81C718.21 295.68 717.47 293.47 716.98 291.33C714.77 281.48 718.15 271.4 720.21 261.53C722.27 251.66 722.64 240.32 715.73 232.72C713.22 229.97 709.92 227.92 707.58 225.02C705.4 222.3 704.17 218.96 701.91 216.29C695.66 208.92 679.63 203.23 669.8 202.29C658.61 201.06 640.37 203.91 631.29 210.5Z" fill="#0C4271"/>
<g opacity="0.1">
<path opacity="0.1" d="M713.37 294.8C710.91 294.5 709.73 291.8 709.03 289.57C707.463 284.563 705.897 279.563 704.33 274.57C703.04 270.44 700.4 265.4 695.92 265.86C694.92 265.97 693.74 266.38 692.82 265.86C691.9 265.34 691.67 264.05 691.42 262.98C689.92 256.38 681.71 253.49 674.65 253.14C671.734 252.948 668.806 253.14 665.94 253.71C656.94 255.71 649.25 262.71 640.1 261.98C637.74 261.79 635.3 261.07 633.1 261.84C629.73 263 628.52 266.84 627.77 270.22L620.84 301.02C620.37 303.14 619.35 305.73 617.09 305.85C616.09 299.41 613.85 291.61 607.2 290.13C605.936 289.991 604.694 289.699 603.5 289.26C602.63 288.785 601.949 288.026 601.57 287.11C601.39 288.04 601.18 288.97 601.06 289.9C600.76 292.28 601.29 295.12 603.5 296.26C604.691 296.708 605.934 297 607.2 297.13C613.85 298.61 616.08 306.41 617.09 312.86C619.35 312.73 620.37 310.14 620.84 308.03L627.77 277.22C628.52 273.88 629.77 270.01 633.1 268.84C635.33 268.07 637.77 268.79 640.1 268.99C649.25 269.74 656.99 262.67 665.94 260.72C668.792 260.149 671.707 259.957 674.61 260.15C681.67 260.5 689.88 263.4 691.38 269.99C691.63 271.06 691.78 272.34 692.78 272.87C693.78 273.4 694.78 272.95 695.88 272.87C700.36 272.42 703 277.46 704.29 281.58C705.85 286.587 707.417 291.587 708.99 296.58C709.69 298.85 710.87 301.52 713.33 301.81C715.6 302.09 717.53 299.94 717.87 297.81C718.024 296.018 717.82 294.213 717.27 292.5C716.914 293.221 716.356 293.823 715.663 294.232C714.97 294.641 714.173 294.838 713.37 294.8Z" fill="black"/>
<path opacity="0.1" d="M601.83 275.76C601.32 272.71 598.83 270.34 597.48 267.54C596.612 265.651 596.11 263.615 596 261.54C596 262.66 595.9 263.78 595.89 264.91C595.89 268.19 596.03 271.57 597.48 274.55C598.59 276.82 600.42 278.82 601.34 281.13C601.825 279.384 601.991 277.565 601.83 275.76Z" fill="black"/>
<path opacity="0.1" d="M720.25 254.48C718.43 263.2 715.59 272.08 716.47 280.82C717.04 274.37 718.92 267.88 720.25 261.48C721.358 256.623 721.749 251.63 721.41 246.66C721.192 249.289 720.805 251.901 720.25 254.48V254.48Z" fill="black"/>
</g>
<path d="M605.77 478.65C604.56 498.51 589.99 514.92 584.44 534.02C583.06 538.8 582.23 543.76 580.25 548.31C576.25 557.46 568.02 564.1 559.25 568.78C556.05 570.629 552.55 571.902 548.91 572.54C544.908 573.008 540.859 572.245 537.302 570.353C533.745 568.461 530.849 565.53 529 561.95C526.71 557.3 526.39 551.95 525 546.95C523.45 541.18 520.55 535.86 518.66 530.19C515.18 519.76 515.25 508.34 517.66 497.62C519.943 488.298 523.557 479.352 528.39 471.06C529.09 469.83 529.8 468.61 530.53 467.4C532.593 463.902 534.909 460.56 537.46 457.4C543.46 450.17 551.17 444.61 558.8 439.13C559.383 438.65 560.066 438.308 560.8 438.13H560.92C561.78 438.1 562.633 438.3 563.39 438.71C573.971 443.285 584.128 448.786 593.74 455.15C597.18 457.44 602.61 460 604.41 463.9C606.21 467.8 606.03 474.41 605.77 478.65Z" fill="#FBBEBE"/>
<path d="M566.07 387.26C565.096 388.28 564.34 389.488 563.85 390.81C555.767 409.027 550.992 428.539 549.75 448.43C549.772 449.4 549.548 450.36 549.1 451.22C548.658 451.793 548.166 452.325 547.63 452.81C547.143 453.387 546.78 454.058 546.563 454.781C546.345 455.504 546.279 456.264 546.367 457.014C546.455 457.763 546.696 458.487 547.075 459.14C547.454 459.793 547.963 460.362 548.57 460.81C550.22 457.7 554.17 456.69 557.68 456.42C574.49 455.09 590.91 462.91 607.77 462.32C606.58 458.21 604.87 454.26 603.9 450.1C599.61 431.63 610.31 411.52 603.75 393.73C602.44 390.17 600.25 386.67 596.8 385.11C595.372 384.533 593.877 384.137 592.35 383.93C588.09 383.16 579.61 379.87 575.49 381.19C573.97 381.68 573.37 383.11 572.11 383.97C570.24 385.2 567.7 385.63 566.07 387.26Z" fill="#6D94F8"/>
<path opacity="0.1" d="M572.96 552.61C570.389 556.971 566.738 560.597 562.36 563.138C557.981 565.679 553.022 567.051 547.96 567.12C545.22 567.192 542.495 566.691 539.96 565.65C533.57 562.83 529.96 555.85 528.62 548.99C527.28 542.13 527.7 535.05 526.75 528.12C525.99 522.6 524.37 517.24 523.53 511.73C521.47 498.1 525.53 484.64 528.42 471.07C529.12 469.84 529.83 468.62 530.56 467.41C532.623 463.912 534.939 460.57 537.49 457.41C543.49 450.18 551.2 444.62 558.83 439.14H550.83C551.023 438.998 551.251 438.91 551.489 438.884C551.728 438.858 551.969 438.895 552.188 438.991C552.408 439.087 552.599 439.239 552.741 439.432C552.883 439.625 552.973 439.852 553 440.09C553.79 447.09 563.66 454.09 565.81 460.89C567.14 465.07 568.74 469.17 569.81 473.43C570.653 477.058 571.294 480.731 571.73 484.43C573.15 494.783 574.563 505.117 575.97 515.43C577.74 528.02 579.26 541.63 572.96 552.61Z" fill="black"/>
<path d="M559.72 421.31L569.37 391.04C570.81 386.51 572.27 381.91 572.44 377.15C572.61 372.39 571.36 367.4 568.03 364C565.33 361.25 561.59 359.83 558.39 357.68C550.39 352.29 546.39 342.85 542.22 334.16C538.05 325.47 532.56 316.38 523.46 313.16C521.36 312.42 518.46 312.36 517.52 314.37C517.195 315.206 517.142 316.123 517.37 316.99C518.25 321.61 521.56 325.3 524.44 328.99C529.27 335.24 533.31 342.89 532.15 350.71C530.77 359.97 522.45 367.15 521.45 376.46C521.01 380.56 522.06 384.67 522.05 388.8C522.05 391.36 521.63 393.97 522.2 396.47C522.792 398.403 523.496 400.3 524.31 402.15C525.201 405.14 525.665 408.24 525.69 411.36L527.8 450.72C528.94 472.01 517.39 492.72 520.57 513.72C521.41 519.23 523.03 524.59 523.79 530.11C524.79 537.04 524.32 544.11 525.66 550.98C527 557.85 530.66 564.82 537 567.64C539.535 568.681 542.26 569.182 545 569.11C550.062 569.041 555.021 567.669 559.4 565.128C563.778 562.587 567.429 558.961 570 554.6C576.3 543.6 574.78 530.01 573.06 517.47L568.82 486.47C568.384 482.771 567.743 479.098 566.9 475.47C565.84 471.21 564.24 467.11 562.9 462.93C558.61 449.26 555.4 434.89 559.72 421.31Z" fill="#FBBEBE"/>
<path d="M816.6 423.66H609.54C605.138 423.66 601.57 427.228 601.57 431.63V557.69C601.57 562.092 605.138 565.66 609.54 565.66H816.6C821.002 565.66 824.57 562.092 824.57 557.69V431.63C824.57 427.228 821.002 423.66 816.6 423.66Z" fill="#0C4271"/>
<path opacity="0.2" d="M816.6 423.66H609.54C605.138 423.66 601.57 427.228 601.57 431.63V557.69C601.57 562.092 605.138 565.66 609.54 565.66H816.6C821.002 565.66 824.57 562.092 824.57 557.69V431.63C824.57 427.228 821.002 423.66 816.6 423.66Z" fill="black"/>
<path d="M712.57 500.66C715.884 500.66 718.57 497.974 718.57 494.66C718.57 491.346 715.884 488.66 712.57 488.66C709.256 488.66 706.57 491.346 706.57 494.66C706.57 497.974 709.256 500.66 712.57 500.66Z" fill="white"/>
<path d="M449.44 611H461.55C468.18 611 474.539 613.634 479.228 618.322C483.916 623.011 486.55 629.37 486.55 636V673.11H424.44V636C424.44 629.37 427.074 623.011 431.762 618.322C436.451 613.634 442.81 611 449.44 611Z" fill="#0C4271"/>
<path opacity="0.1" d="M449.44 611H461.55C468.18 611 474.539 613.634 479.228 618.322C483.916 623.011 486.55 629.37 486.55 636V673.11H424.44V636C424.44 629.37 427.074 623.011 431.762 618.322C436.451 613.634 442.81 611 449.44 611Z" fill="black"/>
<path d="M453.02 624.67C455.765 624.67 457.99 622.445 457.99 619.7C457.99 616.955 455.765 614.73 453.02 614.73C450.275 614.73 448.05 616.955 448.05 619.7C448.05 622.445 450.275 624.67 453.02 624.67Z" fill="#0C4271"/>
<path d="M453.02 618.46C455.765 618.46 457.99 616.235 457.99 613.49C457.99 610.745 455.765 608.52 453.02 608.52C450.275 608.52 448.05 610.745 448.05 613.49C448.05 616.235 450.275 618.46 453.02 618.46Z" fill="#0C4271"/>
<path d="M453.02 612.25C455.765 612.25 457.99 610.025 457.99 607.28C457.99 604.535 455.765 602.31 453.02 602.31C450.275 602.31 448.05 604.535 448.05 607.28C448.05 610.025 450.275 612.25 453.02 612.25Z" fill="#0C4271"/>
<path d="M453.02 606.04C455.765 606.04 457.99 603.815 457.99 601.07C457.99 598.325 455.765 596.1 453.02 596.1C450.275 596.1 448.05 598.325 448.05 601.07C448.05 603.815 450.275 606.04 453.02 606.04Z" fill="#0C4271"/>
<path d="M453.02 599.83C455.765 599.83 457.99 597.605 457.99 594.86C457.99 592.115 455.765 589.89 453.02 589.89C450.275 589.89 448.05 592.115 448.05 594.86C448.05 597.605 450.275 599.83 453.02 599.83Z" fill="#0C4271"/>
<path d="M453.02 593.62C455.765 593.62 457.99 591.395 457.99 588.65C457.99 585.905 455.765 583.68 453.02 583.68C450.275 583.68 448.05 585.905 448.05 588.65C448.05 591.395 450.275 593.62 453.02 593.62Z" fill="#0C4271"/>
<path d="M453.02 587.41C455.765 587.41 457.99 585.185 457.99 582.44C457.99 579.695 455.765 577.47 453.02 577.47C450.275 577.47 448.05 579.695 448.05 582.44C448.05 585.185 450.275 587.41 453.02 587.41Z" fill="#0C4271"/>
<path d="M460.47 589.89C463.215 589.89 465.44 587.665 465.44 584.92C465.44 582.175 463.215 579.95 460.47 579.95C457.725 579.95 455.5 582.175 455.5 584.92C455.5 587.665 457.725 589.89 460.47 589.89Z" fill="#0C4271"/>
<path d="M465.44 587.41C468.185 587.41 470.41 585.185 470.41 582.44C470.41 579.695 468.185 577.47 465.44 577.47C462.695 577.47 460.47 579.695 460.47 582.44C460.47 585.185 462.695 587.41 465.44 587.41Z" fill="#0C4271"/>
<path d="M470.41 584.92C473.155 584.92 475.38 582.695 475.38 579.95C475.38 577.205 473.155 574.98 470.41 574.98C467.665 574.98 465.44 577.205 465.44 579.95C465.44 582.695 467.665 584.92 470.41 584.92Z" fill="#0C4271"/>
<path d="M453.02 581.19C455.765 581.19 457.99 578.965 457.99 576.22C457.99 573.475 455.765 571.25 453.02 571.25C450.275 571.25 448.05 573.475 448.05 576.22C448.05 578.965 450.275 581.19 453.02 581.19Z" fill="#0C4271"/>
<path d="M453.02 574.98C455.765 574.98 457.99 572.755 457.99 570.01C457.99 567.265 455.765 565.04 453.02 565.04C450.275 565.04 448.05 567.265 448.05 570.01C448.05 572.755 450.275 574.98 453.02 574.98Z" fill="#0C4271"/>
<path d="M453.02 568.77C455.765 568.77 457.99 566.545 457.99 563.8C457.99 561.055 455.765 558.83 453.02 558.83C450.275 558.83 448.05 561.055 448.05 563.8C448.05 566.545 450.275 568.77 453.02 568.77Z" fill="#0C4271"/>
<path d="M453.02 562.56C455.765 562.56 457.99 560.335 457.99 557.59C457.99 554.845 455.765 552.62 453.02 552.62C450.275 552.62 448.05 554.845 448.05 557.59C448.05 560.335 450.275 562.56 453.02 562.56Z" fill="#0C4271"/>
<path d="M473.61 541.56C472.38 541.74 471.14 541.87 469.9 541.95C471.053 540.944 472.123 539.847 473.1 538.67C472.408 536.583 471.396 534.616 470.1 532.84C468.868 533.532 467.506 533.961 466.1 534.1C464.87 534.28 463.63 534.42 462.39 534.5C464.056 532.914 465.642 531.245 467.14 529.5C463.545 526.266 458.948 524.366 454.119 524.116C449.29 523.867 444.522 525.283 440.613 528.129C436.704 530.974 433.89 535.076 432.643 539.748C431.397 544.42 431.792 549.378 433.764 553.793C435.736 558.208 439.165 561.812 443.476 564.001C447.787 566.191 452.72 566.833 457.448 565.821C462.176 564.808 466.413 562.202 469.45 558.44C472.486 554.677 474.139 549.985 474.13 545.15C474.13 543.933 474.023 542.718 473.81 541.52L473.61 541.56Z" fill="#0A81AB"/>
<path d="M490.22 566.25C488.951 567.027 487.521 567.506 486.04 567.65C484.81 567.83 483.57 567.96 482.33 568.04C483.648 566.858 484.878 565.581 486.01 564.22C483.014 563.439 479.833 563.803 477.091 565.242C474.349 566.681 472.242 569.091 471.183 572.001C470.123 574.91 470.186 578.111 471.361 580.976C472.535 583.841 474.736 586.165 477.533 587.494C480.331 588.823 483.523 589.061 486.486 588.161C489.449 587.261 491.97 585.289 493.556 582.629C495.142 579.97 495.679 576.814 495.062 573.779C494.445 570.745 492.719 568.049 490.22 566.22V566.25Z" fill="#0A81AB"/>
<path d="M445.56 589.89C448.305 589.89 450.53 587.665 450.53 584.92C450.53 582.175 448.305 579.95 445.56 579.95C442.815 579.95 440.59 582.175 440.59 584.92C440.59 587.665 442.815 589.89 445.56 589.89Z" fill="#0C4271"/>
<path d="M440.59 587.41C443.335 587.41 445.56 585.185 445.56 582.44C445.56 579.695 443.335 577.47 440.59 577.47C437.845 577.47 435.62 579.695 435.62 582.44C435.62 585.185 437.845 587.41 440.59 587.41Z" fill="#0C4271"/>
<path d="M435.62 584.92C438.365 584.92 440.59 582.695 440.59 579.95C440.59 577.205 438.365 574.98 435.62 574.98C432.875 574.98 430.65 577.205 430.65 579.95C430.65 582.695 432.875 584.92 435.62 584.92Z" fill="#0C4271"/>
<path d="M415.81 566.25C417.079 567.029 418.508 567.508 419.99 567.65C421.22 567.83 422.46 567.96 423.7 568.04C422.38 566.861 421.149 565.584 420.02 564.22C423.016 563.439 426.197 563.803 428.939 565.242C431.681 566.681 433.788 569.091 434.847 572.001C435.907 574.91 435.844 578.111 434.669 580.976C433.495 583.841 431.294 586.165 428.497 587.494C425.699 588.823 422.507 589.061 419.544 588.161C416.581 587.261 414.06 585.289 412.474 582.629C410.888 579.97 410.351 576.814 410.968 573.779C411.585 570.745 413.311 568.049 415.81 566.22V566.25Z" fill="#0A81AB"/>
<path d="M449.44 614.73H461.55C468.18 614.73 474.539 617.364 479.228 622.052C483.916 626.741 486.55 633.1 486.55 639.73V672.6C486.55 673.724 486.103 674.803 485.308 675.598C484.513 676.393 483.435 676.84 482.31 676.84H428.68C427.555 676.84 426.477 676.393 425.682 675.598C424.887 674.803 424.44 673.724 424.44 672.6V639.73C424.44 633.1 427.074 626.741 431.762 622.052C436.451 617.364 442.81 614.73 449.44 614.73Z" fill="#0C4271"/>
<g opacity="0.1">
<path opacity="0.1" d="M473.99 542.92C473.487 543.458 472.953 543.965 472.39 544.44C472.96 544.44 473.52 544.35 474.09 544.29C474.07 543.83 474.04 543.37 473.99 542.92Z" fill="black"/>
<path opacity="0.1" d="M464.93 536.98C466.18 536.9 467.41 536.77 468.65 536.59C469.762 536.449 470.85 536.153 471.88 535.71C471.374 534.71 470.793 533.751 470.14 532.84C469.518 533.219 468.844 533.505 468.14 533.69C467.159 534.871 466.086 535.971 464.93 536.98Z" fill="black"/>
<path opacity="0.1" d="M434.38 547.65C434.373 543.859 435.388 540.136 437.319 536.873C439.249 533.61 442.024 530.928 445.351 529.11C448.678 527.292 452.434 526.405 456.223 526.542C460.012 526.68 463.693 527.836 466.88 529.89L467.2 529.55C465.12 527.7 462.695 526.279 460.064 525.37C457.432 524.461 454.647 524.082 451.869 524.254C449.09 524.426 446.373 525.147 443.874 526.374C441.375 527.601 439.144 529.31 437.309 531.403C435.474 533.496 434.071 535.932 433.181 538.57C432.291 541.208 431.932 543.996 432.125 546.773C432.317 549.55 433.057 552.262 434.303 554.751C435.548 557.241 437.273 559.46 439.38 561.28C436.146 557.476 434.373 552.643 434.38 547.65V547.65Z" fill="black"/>
</g>
<g opacity="0.1">
<path opacity="0.1" d="M482.33 570.52C483.57 570.44 484.81 570.31 486.04 570.13C487.522 569.99 488.953 569.511 490.22 568.73C491.624 569.764 492.795 571.082 493.656 572.598C494.518 574.114 495.05 575.795 495.22 577.53C495.268 577.095 495.292 576.658 495.29 576.22C495.299 574.278 494.852 572.361 493.983 570.624C493.115 568.886 491.849 567.378 490.29 566.22C489.021 566.997 487.591 567.476 486.11 567.62L485.11 567.74C484.257 568.737 483.327 569.667 482.33 570.52V570.52Z" fill="black"/>
<path opacity="0.1" d="M482.83 566.28C483.245 566.285 483.659 566.315 484.07 566.37C484.72 565.68 485.36 564.94 486.01 564.22C484.172 563.729 482.245 563.668 480.379 564.041C478.513 564.414 476.758 565.211 475.25 566.372C473.741 567.532 472.52 569.023 471.681 570.731C470.842 572.439 470.407 574.317 470.41 576.22C470.41 576.64 470.41 577.05 470.47 577.46C470.777 574.396 472.212 571.555 474.496 569.489C476.78 567.423 479.75 566.28 482.83 566.28V566.28Z" fill="black"/>
</g>
<g opacity="0.1">
<path opacity="0.1" d="M423.7 570.52C422.46 570.44 421.22 570.31 419.99 570.13C418.507 569.992 417.077 569.513 415.81 568.73C414.406 569.764 413.235 571.082 412.374 572.598C411.512 574.114 410.98 575.795 410.81 577.53C410.761 577.095 410.738 576.658 410.74 576.22C410.731 574.278 411.178 572.361 412.047 570.624C412.915 568.886 414.181 567.378 415.74 566.22C417.009 566.999 418.438 567.478 419.92 567.62L420.92 567.74C421.768 568.742 422.698 569.672 423.7 570.52Z" fill="black"/>
<path opacity="0.1" d="M423.2 566.28C422.782 566.285 422.364 566.315 421.95 566.37C421.31 565.68 420.67 564.94 420.02 564.22C421.858 563.729 423.785 563.668 425.651 564.041C427.517 564.414 429.272 565.211 430.78 566.372C432.289 567.532 433.51 569.023 434.349 570.731C435.188 572.439 435.623 574.317 435.62 576.22C435.62 576.64 435.62 577.05 435.56 577.46C435.253 574.396 433.818 571.555 431.534 569.489C429.25 567.423 426.28 566.28 423.2 566.28Z" fill="black"/>
</g>
<path d="M384.11 179.65H158.11V267.65H384.11V179.65Z" fill="#0A81AB"/>
<path d="M517.11 179.65H170.11C163.483 179.65 158.11 185.022 158.11 191.65V255.65C158.11 262.277 163.483 267.65 170.11 267.65H517.11C523.737 267.65 529.11 262.277 529.11 255.65V191.65C529.11 185.022 523.737 179.65 517.11 179.65Z" stroke="#0C4271" stroke-width="9" stroke-miterlimit="10"/>
<path d="M361.37 218.94C360.639 215.259 358.782 211.897 356.056 209.318C353.33 206.739 349.87 205.071 346.154 204.544C342.439 204.018 338.651 204.66 335.316 206.381C331.982 208.102 329.264 210.817 327.54 214.15C323.847 214.54 320.446 216.333 318.037 219.159C315.629 221.985 314.399 225.629 314.6 229.336C314.802 233.044 316.42 236.532 319.12 239.081C321.821 241.629 325.397 243.043 329.11 243.03H360.53C363.74 243.022 366.816 241.74 369.081 239.466C371.346 237.191 372.615 234.11 372.61 230.9C372.623 227.847 371.464 224.905 369.373 222.68C367.283 220.455 364.418 219.117 361.37 218.94V218.94ZM347.48 226.07V235.25H339.74V226.07H331.53L343.61 213.98L355.69 226.07H347.48Z" fill="white"/>
</g>
<defs>
<linearGradient id="paint0_linear" x1="724.43" y1="708.3" x2="724.43" y2="196.65" gradientUnits="userSpaceOnUse">
<stop stop-color="#808080" stop-opacity="0.25"/>
<stop offset="0.54" stop-color="#808080" stop-opacity="0.12"/>
<stop offset="1" stop-color="#808080" stop-opacity="0.1"/>
</linearGradient>
<clipPath id="clip0">
<rect width="1017.23" height="708.31" fill="white"/>
</clipPath>
</defs>
</svg>
